<svg xmlns="http://www.w3.org/2000/svg" xmlns:xlink="http://www.w3.org/1999/xlink" version="1.1" id="Warstwa_1" x="0px" y="0px" width="100px" height="100px" viewBox="0 0 100 100" style="enable-background:new 0 0 100 100;" xml:space="preserve">
<style type="text/css">

	.st0{fill:none;stroke:#000000;stroke-width:0.745;stroke-miterlimit:10;}

</style>
<polyline class="st0" points="0,74.7 15.3,74.7 15.3,58.5 25.1,58.5 25.1,65.6 27.2,65.6 27.2,58.5 34.8,58.5 34.8,27.2 36.9,27.2 38,18.3 38,33.9 39.5,33.9 39.5,37.1 41.7,37.1 41.7,40.4 43,40.4 43,39.1 47.1,39.1 48.2,40.3 48.2,48.8 50.7,48.8 50.7,50.5 51.6,50.5 51.6,55.7 55.3,55.7 55.3,59.4 57.5,59.4 57.5,42.5 59.3,40.7 60,33.2 60.5,40.6 62,41 63.4,42.4 65.2,42.4 65.2,46.5 68.4,46.5 68.4,74.7 99.8,74.7"/>
</svg>
