<svg xmlns="http://www.w3.org/2000/svg" xmlns:xlink="http://www.w3.org/1999/xlink" version="1.1" id="Warstwa_1" x="0px" y="0px" width="100px" height="100px" viewBox="0 0 100 100" style="enable-background:new 0 0 100 100;" xml:space="preserve">
<style type="text/css">

	.st0{fill:#010101;}
	.st1{fill:none;stroke:#010101;stroke-width:0.684;stroke-miterlimit:10;}

</style>
<polyline class="st1" points="29.5,61.8 29.5,62.7 27.2,62.7 27.2,69.6 25.3,69.6 1,69.6"/>
<path class="st1" d="M29.507 61.767v-2.424l1.333-5.208l1.09-4.725c0 0-2.423-2.302 0.121-4.846c0 0 0 0 2.665-3.392 c0 0 2.5 3.5 3 3.998c0 0 2.1 2.4 0 3.877c0 0 0.7 1.3 1.6 2.421v-3.633c0 0-1.616-1.666-0.122-3.271l2.544-2.787 l2.181 2.787c0 0 1.9 1.7 0 3.271l-0.121 4.724l1.144 1.213h4.065v-1.213c0 0-1.979-1.898 0.726-3.633l1.212-1.938l1.09 1.8 c0 0 2.5 1.7 0.7 3.755v2.908h0.758v-1.695l1.543-2.665V49.41v-1.09l-0.727-0.485l0.727-0.848c0 0-2.301-1.576 1.695-4.482 l0.485-1.333l0.605 1.333c0 0 3.3 3 1.6 4.361l0.488 0.969l-0.852 0.605v2.757l1.816 2.694v5.937l0.727 2.786l0.849 1.8 v5.209h35.452H99"/>
<path class="st1" d="M43.117 43.534l1.008-1.676l0.202-1.938l-0.565-0.727l0.778-0.683l2.291-7.716v-1.857v-1.091 c0 0-1.938-0.848 0.727-3.028c0 0 2.4 1.8 0.9 3l0.012 1.037l0.08 1.817l1.978 7.875l0.889 0.565l-0.525 1.049l0.122 1.9 l0.687 2.423l0.242 1.656v0.525l0.808 0.282v2.585"/>
<line class="st1" x1="34.7" y1="41.2" x2="34.7" y2="36.8"/>
<line class="st1" x1="41.7" y1="41.8" x2="41.7" y2="37.7"/>
<line class="st1" x1="47.6" y1="24.8" x2="47.6" y2="21.1"/>
<line class="st1" x1="57.2" y1="41.2" x2="57.2" y2="37.2"/>
<line class="st1" x1="50.9" y1="47" x2="50.9" y2="44.1"/>
<circle class="st0" cx="34.7" cy="39.5" r="0.5"/>
<circle class="st0" cx="41.7" cy="40.2" r="0.5"/>
<circle class="st0" cx="57.2" cy="40" r="0.5"/>
<circle class="st0" cx="47.6" cy="23.5" r="0.5"/>
<circle class="st0" cx="50.9" cy="45.8" r="0.5"/>
</svg>
