<svg xmlns="http://www.w3.org/2000/svg" xmlns:xlink="http://www.w3.org/1999/xlink" version="1.1" id="Warstwa_1" x="0px" y="0px" width="100px" height="100px" viewBox="0 0 100 100" style="enable-background:new 0 0 100 100;" xml:space="preserve">
<style type="text/css">

	.st0{fill:none;stroke:#000000;stroke-width:0.8967;stroke-miterlimit:10;}

</style>
<path class="st0" d="M1.442 93.022h25.332V60.965h-3.362l16.577-13.003l3.375 1.121l18.382 13.675l-2.018 1.569v10.761h3.811V41.236 c0 0-1.793-4.707-1.344-8.967c0 0-3.813-0.673 1.344-4.259l2.467-3.139v-3.586h-0.896c0 0 7.473-8.07 7.846-17.262 c0 0 0.1 8.9 7.4 17.262l-1.121 0.224v3.363l3.362 3.139c0 0 5 3.4 1.6 4.259c0 0 0.6 4.857-1.569 8.967v34.3 h14.124"/>
</svg>
